<svg width="35" height="46" viewBox="0 0 35 46" fill="none" xmlns="http://www.w3.org/2000/svg">
<rect x="10" width="25" height="34" fill="white"/>
<rect y="17" width="10" height="17" fill="white"/>
<path d="M11.5 22.125L11.5 24.375L16 24.375L16 27.75L11.5 27.75L11.5 30L10.375 30L10.375 28.875L9.25 28.875L9.25 27.75L8.125 27.75L8.125 26.625L7 26.625L7 25.5L8.125 25.5L8.125 24.375L9.25 24.375L9.25 23.25L10.375 23.25L10.375 22.125L11.5 22.125Z" fill="black"/>
<rect x="11" y="24" width="12" height="4" fill="black"/>
<rect x="19" y="27" width="12" height="4" transform="rotate(-90 19 27)" fill="black"/>
</svg>
